<svg width="60" height="60" viewBox="0 0 60 60" fill="none" xmlns="http://www.w3.org/2000/svg">
<circle cx="30" cy="30" r="30" fill="#29A71A"/>
<path d="M21.021 24.0092C21.1924 22.6536 22.9542 20.8112 24.3523 21.0156L24.3501 21.0134C25.7108 21.272 26.7879 23.6139 27.3953 24.667C27.8256 25.431 27.5462 26.2051 27.1448 26.5318C26.6033 26.9682 25.7565 27.5704 25.9341 28.1751C26.25 29.25 30 33 31.8444 34.066C32.5425 34.4695 33.0488 33.4053 33.4811 32.86C33.7952 32.4406 34.5699 32.19 35.3322 32.604C36.4707 33.267 37.5432 34.0375 38.535 34.905C39.0303 35.319 39.1466 35.9308 38.8034 36.5775C38.1989 37.7164 36.4505 39.2184 35.1813 38.9131C32.9646 38.3802 24 34.905 21.1205 24.837C20.9586 24.3607 20.9993 24.1807 21.021 24.0092Z" fill="#F2F3F4"/>
<path fill-rule="evenodd" clip-rule="evenodd" d="M30 46.5C28.1646 46.5 27.1491 46.3031 25.5 45.75L22.3416 47.3292C20.3469 48.3265 18 46.8761 18 44.6459V41.25C14.7698 38.238 13.5 34.7651 13.5 30C13.5 20.8873 20.8873 13.5 30 13.5C39.1126 13.5 46.5 20.8873 46.5 30C46.5 39.1126 39.1126 46.5 30 46.5ZM21 39.9454L20.0459 39.0558C17.5363 36.7158 16.5 34.0996 16.5 30C16.5 22.5442 22.5442 16.5 30 16.5C37.4559 16.5 43.5 22.5442 43.5 30C43.5 37.4559 37.4559 43.5 30 43.5C28.5214 43.5 27.828 43.3665 26.4539 42.9057L25.2727 42.5096L21 44.6459V39.9454Z" fill="#F2F3F4"/>
</svg>
